# xmcd
#
# Track frame offsets:
#	150
#	13712
#	28991
#	45240
#	53416
#	66458
#	80104
#	93893
#	106881
#	123521
#	142483
#	157592
#	172557
#	187834
#	206224
#	221580
#	240144
#	264558
#	279483
#	295244
#	310534
#	325861
#
# Disc length: 4363 seconds
#
# Revision: 0
# Processed by: cddbd v1.5.2PL0 Copyright (c) Steve Scherf et al.
# Submitted via: audiograbber 1.83.01
#
DISCID=2c110916
DTITLE=Various Artist - Stony Plain 25 Years disc 2
DYEAR=2001
DGENRE=Blues and Country
TTITLE0=JUST A LITTLE BIT - Rosco Gordon
TTITLE1=DON'T LEAVE ME BABY - Duke Robillard
TTITLE2=RECONSIDER BABY - Lowell Fulson w Powder Blues Band
TTITLE3=LININ' TRACK - Long John Baldry
TTITLE4=GOING TO THE RIVER - King Biscuit Boy
TTITLE5=BERT'S BOOGIE - Amos Garrett
TTITLE6=LET'S WORK IT OUT - Billy Boy Arnold
TTITLE7=I NEED A VICE - David Wilcox
TTITLE8=MEAN OLE FRISCO - Jimmy Witherspoon
TTITLE9=SAY FORWARD, I'LL MARCH - Jay McShann
TTITLE10=NO SPECIAL RIDER - Jim Byrnes
TTITLE11=CAKEWALK INTO TOWN - Big Dave McLean and Colin James
TTITLE12=GRASSHOPPERS IN MY PILLOW - Maria Muldaur
TTITLE13=DOIN' IT - Professor Longhair
TTITLE14=IT'S BEEN SO LONG - Downchild Blues Band
TTITLE15=SASSY SALLY - Rockin' Highliners
TTITLE16=TUPELO - Rita Chiarelli
TTITLE17=I MUST BE CRAZY - Dutch Mason
TTITLE18=IF I AIN'T GOT - Kristi Johnston
TTITLE19=BLUES ON MY BIRTHDAY - Sonny Rhodes
TTITLE20=BORN UNDER A BAD SIGN - Ellen McIlwaine
TTITLE21=TURKEY IN THE STRAW - Walter Horton
EXTD=A compilation of the first 25 years of Stony Plain records
EXTT0=
EXTT1=
EXTT2=
EXTT3=
EXTT4=
EXTT5=
EXTT6=
EXTT7=
EXTT8=
EXTT9=
EXTT10=
EXTT11=
EXTT12=
EXTT13=
EXTT14=
EXTT15=
EXTT16=
EXTT17=
EXTT18=
EXTT19=
EXTT20=
EXTT21=
PLAYORDER=
